<mxfile host="app.diagrams.net" agent="Mozilla/5.0 (Windows NT 10.0; Win64; x64) AppleWebKit/537.36 (KHTML, like Gecko) Chrome/141.0.0.0 Safari/537.36 Edg/141.0.0.0" version="27.0.6">
  <diagram name="Page-1" id="3ONSMxISLwRDnwYjrzH0">
    <mxGraphModel dx="2191" dy="1156" grid="1" gridSize="10" guides="1" tooltips="1" connect="1" arrows="1" fold="1" page="1" pageScale="1" pageWidth="1654" pageHeight="2336" math="0" shadow="0">
      <root>
        <mxCell id="0" />
        <mxCell id="1" parent="0" />
        <mxCell id="GTWo0XaGXoC1k16elssN-31" value="" style="rounded=0;whiteSpace=wrap;html=1;fillColor=#d5e8d4;strokeColor=#82b366;" vertex="1" parent="1">
          <mxGeometry x="90" y="670" width="240" height="310" as="geometry" />
        </mxCell>
        <mxCell id="GTWo0XaGXoC1k16elssN-5" style="edgeStyle=orthogonalEdgeStyle;rounded=0;orthogonalLoop=1;jettySize=auto;html=1;exitX=0.5;exitY=0.15;exitDx=0;exitDy=0;exitPerimeter=0;entryX=0;entryY=0.5;entryDx=0;entryDy=0;" edge="1" parent="1" source="GTWo0XaGXoC1k16elssN-1" target="GTWo0XaGXoC1k16elssN-4">
          <mxGeometry relative="1" as="geometry" />
        </mxCell>
        <mxCell id="GTWo0XaGXoC1k16elssN-1" value="LoRaWAN Gateway" style="fontColor=#0066CC;verticalAlign=top;verticalLabelPosition=bottom;labelPosition=center;align=center;html=1;outlineConnect=0;fillColor=#CCCCCC;strokeColor=#6881B3;gradientColor=none;gradientDirection=north;strokeWidth=2;shape=mxgraph.networks.radio_tower;" vertex="1" parent="1">
          <mxGeometry x="360" y="520" width="55" height="100" as="geometry" />
        </mxCell>
        <mxCell id="GTWo0XaGXoC1k16elssN-6" style="edgeStyle=orthogonalEdgeStyle;rounded=0;orthogonalLoop=1;jettySize=auto;html=1;exitX=0.5;exitY=0.15;exitDx=0;exitDy=0;exitPerimeter=0;entryX=0.5;entryY=1;entryDx=0;entryDy=0;" edge="1" parent="1" source="GTWo0XaGXoC1k16elssN-2" target="GTWo0XaGXoC1k16elssN-4">
          <mxGeometry relative="1" as="geometry" />
        </mxCell>
        <mxCell id="GTWo0XaGXoC1k16elssN-2" value="LoRaWAN Gateway" style="fontColor=#0066CC;verticalAlign=top;verticalLabelPosition=bottom;labelPosition=center;align=center;html=1;outlineConnect=0;fillColor=#CCCCCC;strokeColor=#6881B3;gradientColor=none;gradientDirection=north;strokeWidth=2;shape=mxgraph.networks.radio_tower;" vertex="1" parent="1">
          <mxGeometry x="700" y="430" width="55" height="100" as="geometry" />
        </mxCell>
        <mxCell id="GTWo0XaGXoC1k16elssN-7" style="edgeStyle=orthogonalEdgeStyle;rounded=0;orthogonalLoop=1;jettySize=auto;html=1;exitX=0.5;exitY=0.15;exitDx=0;exitDy=0;exitPerimeter=0;entryX=1;entryY=0.5;entryDx=0;entryDy=0;" edge="1" parent="1" source="GTWo0XaGXoC1k16elssN-3" target="GTWo0XaGXoC1k16elssN-4">
          <mxGeometry relative="1" as="geometry" />
        </mxCell>
        <mxCell id="GTWo0XaGXoC1k16elssN-3" value="LoRaWAN Gateway" style="fontColor=#0066CC;verticalAlign=top;verticalLabelPosition=bottom;labelPosition=center;align=center;html=1;outlineConnect=0;fillColor=#CCCCCC;strokeColor=#6881B3;gradientColor=none;gradientDirection=north;strokeWidth=2;shape=mxgraph.networks.radio_tower;" vertex="1" parent="1">
          <mxGeometry x="930" y="550" width="55" height="100" as="geometry" />
        </mxCell>
        <mxCell id="GTWo0XaGXoC1k16elssN-10" style="edgeStyle=orthogonalEdgeStyle;rounded=0;orthogonalLoop=1;jettySize=auto;html=1;exitX=0.5;exitY=0;exitDx=0;exitDy=0;entryX=0.5;entryY=1;entryDx=0;entryDy=0;" edge="1" parent="1" source="GTWo0XaGXoC1k16elssN-4" target="GTWo0XaGXoC1k16elssN-9">
          <mxGeometry relative="1" as="geometry" />
        </mxCell>
        <mxCell id="GTWo0XaGXoC1k16elssN-4" value="LoRaWAN Netwerkserver" style="rounded=0;whiteSpace=wrap;html=1;fillColor=#fff2cc;strokeColor=#d6b656;" vertex="1" parent="1">
          <mxGeometry x="667.5" y="240" width="120" height="60" as="geometry" />
        </mxCell>
        <mxCell id="GTWo0XaGXoC1k16elssN-13" value="" style="edgeStyle=orthogonalEdgeStyle;rounded=0;orthogonalLoop=1;jettySize=auto;html=1;" edge="1" parent="1" source="GTWo0XaGXoC1k16elssN-9" target="GTWo0XaGXoC1k16elssN-12">
          <mxGeometry relative="1" as="geometry" />
        </mxCell>
        <mxCell id="GTWo0XaGXoC1k16elssN-15" value="" style="edgeStyle=orthogonalEdgeStyle;rounded=0;orthogonalLoop=1;jettySize=auto;html=1;" edge="1" parent="1" source="GTWo0XaGXoC1k16elssN-9" target="GTWo0XaGXoC1k16elssN-14">
          <mxGeometry relative="1" as="geometry" />
        </mxCell>
        <mxCell id="GTWo0XaGXoC1k16elssN-9" value="Dashboard" style="rounded=1;whiteSpace=wrap;html=1;" vertex="1" parent="1">
          <mxGeometry x="668" y="80" width="120" height="60" as="geometry" />
        </mxCell>
        <mxCell id="GTWo0XaGXoC1k16elssN-12" value="ALARM" style="shadow=0;dashed=0;html=1;strokeColor=none;fillColor=#4495D1;labelPosition=center;verticalLabelPosition=bottom;verticalAlign=top;align=center;outlineConnect=0;shape=mxgraph.veeam.2d.alarm;" vertex="1" parent="1">
          <mxGeometry x="530" y="92" width="52.8" height="37.6" as="geometry" />
        </mxCell>
        <mxCell id="GTWo0XaGXoC1k16elssN-14" value="Gebruiker" style="shape=umlActor;verticalLabelPosition=bottom;verticalAlign=top;html=1;outlineConnect=0;" vertex="1" parent="1">
          <mxGeometry x="880" y="81" width="30" height="60" as="geometry" />
        </mxCell>
        <mxCell id="GTWo0XaGXoC1k16elssN-17" value="&#xa;Sensormodule&#xa;&#xa;" style="text;html=1;align=center;verticalAlign=middle;whiteSpace=wrap;rounded=0;" vertex="1" parent="1">
          <mxGeometry x="120" y="690" width="60" height="30" as="geometry" />
        </mxCell>
        <mxCell id="GTWo0XaGXoC1k16elssN-26" style="edgeStyle=orthogonalEdgeStyle;rounded=0;orthogonalLoop=1;jettySize=auto;html=1;exitX=0.5;exitY=1;exitDx=0;exitDy=0;" edge="1" parent="1" source="GTWo0XaGXoC1k16elssN-19" target="GTWo0XaGXoC1k16elssN-20">
          <mxGeometry relative="1" as="geometry" />
        </mxCell>
        <mxCell id="GTWo0XaGXoC1k16elssN-19" value="temperatuur" style="rounded=0;whiteSpace=wrap;html=1;" vertex="1" parent="1">
          <mxGeometry x="120" y="720" width="90" height="30" as="geometry" />
        </mxCell>
        <mxCell id="GTWo0XaGXoC1k16elssN-27" style="edgeStyle=orthogonalEdgeStyle;rounded=0;orthogonalLoop=1;jettySize=auto;html=1;exitX=0.5;exitY=1;exitDx=0;exitDy=0;entryX=0.5;entryY=0;entryDx=0;entryDy=0;" edge="1" parent="1" source="GTWo0XaGXoC1k16elssN-20" target="GTWo0XaGXoC1k16elssN-21">
          <mxGeometry relative="1" as="geometry" />
        </mxCell>
        <mxCell id="GTWo0XaGXoC1k16elssN-20" value="luchtvochtigheid" style="rounded=0;whiteSpace=wrap;html=1;" vertex="1" parent="1">
          <mxGeometry x="120" y="770" width="90" height="30" as="geometry" />
        </mxCell>
        <mxCell id="GTWo0XaGXoC1k16elssN-23" value="" style="edgeStyle=orthogonalEdgeStyle;rounded=0;orthogonalLoop=1;jettySize=auto;html=1;" edge="1" parent="1" source="GTWo0XaGXoC1k16elssN-21" target="GTWo0XaGXoC1k16elssN-22">
          <mxGeometry relative="1" as="geometry" />
        </mxCell>
        <mxCell id="GTWo0XaGXoC1k16elssN-35" value="Ja" style="edgeLabel;html=1;align=center;verticalAlign=middle;resizable=0;points=[];" vertex="1" connectable="0" parent="GTWo0XaGXoC1k16elssN-23">
          <mxGeometry x="0.1257" relative="1" as="geometry">
            <mxPoint as="offset" />
          </mxGeometry>
        </mxCell>
        <mxCell id="GTWo0XaGXoC1k16elssN-32" style="edgeStyle=orthogonalEdgeStyle;rounded=0;orthogonalLoop=1;jettySize=auto;html=1;exitX=1;exitY=0.5;exitDx=0;exitDy=0;entryX=0;entryY=0.5;entryDx=0;entryDy=0;" edge="1" parent="1" source="GTWo0XaGXoC1k16elssN-21" target="GTWo0XaGXoC1k16elssN-30">
          <mxGeometry relative="1" as="geometry" />
        </mxCell>
        <mxCell id="GTWo0XaGXoC1k16elssN-34" value="Nee" style="edgeLabel;html=1;align=center;verticalAlign=middle;resizable=0;points=[];" vertex="1" connectable="0" parent="GTWo0XaGXoC1k16elssN-32">
          <mxGeometry x="-0.2122" y="-2" relative="1" as="geometry">
            <mxPoint as="offset" />
          </mxGeometry>
        </mxCell>
        <mxCell id="GTWo0XaGXoC1k16elssN-21" value="rook" style="rounded=0;whiteSpace=wrap;html=1;" vertex="1" parent="1">
          <mxGeometry x="120" y="830" width="90" height="30" as="geometry" />
        </mxCell>
        <mxCell id="GTWo0XaGXoC1k16elssN-33" style="edgeStyle=orthogonalEdgeStyle;rounded=0;orthogonalLoop=1;jettySize=auto;html=1;exitX=0.5;exitY=1;exitDx=0;exitDy=0;entryX=0.5;entryY=1;entryDx=0;entryDy=0;" edge="1" parent="1" source="GTWo0XaGXoC1k16elssN-22" target="GTWo0XaGXoC1k16elssN-30">
          <mxGeometry relative="1" as="geometry" />
        </mxCell>
        <mxCell id="GTWo0XaGXoC1k16elssN-22" value="GPS" style="rounded=0;whiteSpace=wrap;html=1;" vertex="1" parent="1">
          <mxGeometry x="120" y="910" width="90" height="30" as="geometry" />
        </mxCell>
        <mxCell id="GTWo0XaGXoC1k16elssN-36" style="edgeStyle=orthogonalEdgeStyle;rounded=0;orthogonalLoop=1;jettySize=auto;html=1;exitX=1;exitY=0.5;exitDx=0;exitDy=0;dashed=1;" edge="1" parent="1" source="GTWo0XaGXoC1k16elssN-30" target="GTWo0XaGXoC1k16elssN-1">
          <mxGeometry relative="1" as="geometry" />
        </mxCell>
        <mxCell id="GTWo0XaGXoC1k16elssN-69" value="LoRaWAN" style="edgeLabel;html=1;align=center;verticalAlign=middle;resizable=0;points=[];" vertex="1" connectable="0" parent="GTWo0XaGXoC1k16elssN-36">
          <mxGeometry x="0.3206" y="4" relative="1" as="geometry">
            <mxPoint as="offset" />
          </mxGeometry>
        </mxCell>
        <mxCell id="GTWo0XaGXoC1k16elssN-30" value="DATA" style="rounded=1;whiteSpace=wrap;html=1;" vertex="1" parent="1">
          <mxGeometry x="280" y="827.5" width="80" height="35" as="geometry" />
        </mxCell>
        <mxCell id="GTWo0XaGXoC1k16elssN-37" value="" style="rounded=0;whiteSpace=wrap;html=1;fillColor=#d5e8d4;strokeColor=#82b366;" vertex="1" parent="1">
          <mxGeometry x="430" y="858" width="240" height="310" as="geometry" />
        </mxCell>
        <mxCell id="GTWo0XaGXoC1k16elssN-38" value="&#xa;Sensormodule&#xa;&#xa;" style="text;html=1;align=center;verticalAlign=middle;whiteSpace=wrap;rounded=0;" vertex="1" parent="1">
          <mxGeometry x="460" y="878" width="60" height="30" as="geometry" />
        </mxCell>
        <mxCell id="GTWo0XaGXoC1k16elssN-39" style="edgeStyle=orthogonalEdgeStyle;rounded=0;orthogonalLoop=1;jettySize=auto;html=1;exitX=0.5;exitY=1;exitDx=0;exitDy=0;" edge="1" parent="1" source="GTWo0XaGXoC1k16elssN-40" target="GTWo0XaGXoC1k16elssN-42">
          <mxGeometry relative="1" as="geometry" />
        </mxCell>
        <mxCell id="GTWo0XaGXoC1k16elssN-40" value="temperatuur" style="rounded=0;whiteSpace=wrap;html=1;" vertex="1" parent="1">
          <mxGeometry x="460" y="908" width="90" height="30" as="geometry" />
        </mxCell>
        <mxCell id="GTWo0XaGXoC1k16elssN-41" style="edgeStyle=orthogonalEdgeStyle;rounded=0;orthogonalLoop=1;jettySize=auto;html=1;exitX=0.5;exitY=1;exitDx=0;exitDy=0;entryX=0.5;entryY=0;entryDx=0;entryDy=0;" edge="1" parent="1" source="GTWo0XaGXoC1k16elssN-42" target="GTWo0XaGXoC1k16elssN-47">
          <mxGeometry relative="1" as="geometry" />
        </mxCell>
        <mxCell id="GTWo0XaGXoC1k16elssN-42" value="luchtvochtigheid" style="rounded=0;whiteSpace=wrap;html=1;" vertex="1" parent="1">
          <mxGeometry x="460" y="958" width="90" height="30" as="geometry" />
        </mxCell>
        <mxCell id="GTWo0XaGXoC1k16elssN-43" value="" style="edgeStyle=orthogonalEdgeStyle;rounded=0;orthogonalLoop=1;jettySize=auto;html=1;" edge="1" parent="1" source="GTWo0XaGXoC1k16elssN-47" target="GTWo0XaGXoC1k16elssN-49">
          <mxGeometry relative="1" as="geometry" />
        </mxCell>
        <mxCell id="GTWo0XaGXoC1k16elssN-44" value="Ja" style="edgeLabel;html=1;align=center;verticalAlign=middle;resizable=0;points=[];" vertex="1" connectable="0" parent="GTWo0XaGXoC1k16elssN-43">
          <mxGeometry x="0.1257" relative="1" as="geometry">
            <mxPoint as="offset" />
          </mxGeometry>
        </mxCell>
        <mxCell id="GTWo0XaGXoC1k16elssN-45" style="edgeStyle=orthogonalEdgeStyle;rounded=0;orthogonalLoop=1;jettySize=auto;html=1;exitX=1;exitY=0.5;exitDx=0;exitDy=0;entryX=0;entryY=0.5;entryDx=0;entryDy=0;" edge="1" parent="1" source="GTWo0XaGXoC1k16elssN-47" target="GTWo0XaGXoC1k16elssN-50">
          <mxGeometry relative="1" as="geometry" />
        </mxCell>
        <mxCell id="GTWo0XaGXoC1k16elssN-46" value="Nee" style="edgeLabel;html=1;align=center;verticalAlign=middle;resizable=0;points=[];" vertex="1" connectable="0" parent="GTWo0XaGXoC1k16elssN-45">
          <mxGeometry x="-0.2122" y="-2" relative="1" as="geometry">
            <mxPoint as="offset" />
          </mxGeometry>
        </mxCell>
        <mxCell id="GTWo0XaGXoC1k16elssN-47" value="rook" style="rounded=0;whiteSpace=wrap;html=1;" vertex="1" parent="1">
          <mxGeometry x="460" y="1018" width="90" height="30" as="geometry" />
        </mxCell>
        <mxCell id="GTWo0XaGXoC1k16elssN-48" style="edgeStyle=orthogonalEdgeStyle;rounded=0;orthogonalLoop=1;jettySize=auto;html=1;exitX=0.5;exitY=1;exitDx=0;exitDy=0;entryX=0.5;entryY=1;entryDx=0;entryDy=0;" edge="1" parent="1" source="GTWo0XaGXoC1k16elssN-49" target="GTWo0XaGXoC1k16elssN-50">
          <mxGeometry relative="1" as="geometry" />
        </mxCell>
        <mxCell id="GTWo0XaGXoC1k16elssN-49" value="GPS" style="rounded=0;whiteSpace=wrap;html=1;" vertex="1" parent="1">
          <mxGeometry x="460" y="1098" width="90" height="30" as="geometry" />
        </mxCell>
        <mxCell id="GTWo0XaGXoC1k16elssN-50" value="DATA" style="rounded=1;whiteSpace=wrap;html=1;" vertex="1" parent="1">
          <mxGeometry x="620" y="1015.5" width="80" height="35" as="geometry" />
        </mxCell>
        <mxCell id="GTWo0XaGXoC1k16elssN-51" value="" style="rounded=0;whiteSpace=wrap;html=1;fillColor=#d5e8d4;strokeColor=#82b366;" vertex="1" parent="1">
          <mxGeometry x="1020" y="705.5" width="240" height="310" as="geometry" />
        </mxCell>
        <mxCell id="GTWo0XaGXoC1k16elssN-52" value="&#xa;Sensormodule&#xa;&#xa;" style="text;html=1;align=center;verticalAlign=middle;whiteSpace=wrap;rounded=0;" vertex="1" parent="1">
          <mxGeometry x="1170" y="715.5" width="60" height="30" as="geometry" />
        </mxCell>
        <mxCell id="GTWo0XaGXoC1k16elssN-53" style="edgeStyle=orthogonalEdgeStyle;rounded=0;orthogonalLoop=1;jettySize=auto;html=1;exitX=0.5;exitY=1;exitDx=0;exitDy=0;" edge="1" parent="1" source="GTWo0XaGXoC1k16elssN-54" target="GTWo0XaGXoC1k16elssN-56">
          <mxGeometry relative="1" as="geometry" />
        </mxCell>
        <mxCell id="GTWo0XaGXoC1k16elssN-54" value="temperatuur" style="rounded=0;whiteSpace=wrap;html=1;" vertex="1" parent="1">
          <mxGeometry x="1150" y="755.5" width="90" height="30" as="geometry" />
        </mxCell>
        <mxCell id="GTWo0XaGXoC1k16elssN-55" style="edgeStyle=orthogonalEdgeStyle;rounded=0;orthogonalLoop=1;jettySize=auto;html=1;exitX=0.5;exitY=1;exitDx=0;exitDy=0;entryX=0.5;entryY=0;entryDx=0;entryDy=0;" edge="1" parent="1" source="GTWo0XaGXoC1k16elssN-56" target="GTWo0XaGXoC1k16elssN-61">
          <mxGeometry relative="1" as="geometry" />
        </mxCell>
        <mxCell id="GTWo0XaGXoC1k16elssN-56" value="luchtvochtigheid" style="rounded=0;whiteSpace=wrap;html=1;" vertex="1" parent="1">
          <mxGeometry x="1150" y="808" width="90" height="30" as="geometry" />
        </mxCell>
        <mxCell id="GTWo0XaGXoC1k16elssN-57" value="" style="edgeStyle=orthogonalEdgeStyle;rounded=0;orthogonalLoop=1;jettySize=auto;html=1;" edge="1" parent="1" source="GTWo0XaGXoC1k16elssN-61" target="GTWo0XaGXoC1k16elssN-63">
          <mxGeometry relative="1" as="geometry" />
        </mxCell>
        <mxCell id="GTWo0XaGXoC1k16elssN-58" value="Ja" style="edgeLabel;html=1;align=center;verticalAlign=middle;resizable=0;points=[];" vertex="1" connectable="0" parent="GTWo0XaGXoC1k16elssN-57">
          <mxGeometry x="0.1257" relative="1" as="geometry">
            <mxPoint as="offset" />
          </mxGeometry>
        </mxCell>
        <mxCell id="GTWo0XaGXoC1k16elssN-65" style="edgeStyle=orthogonalEdgeStyle;rounded=0;orthogonalLoop=1;jettySize=auto;html=1;exitX=0;exitY=0.5;exitDx=0;exitDy=0;entryX=1;entryY=0.5;entryDx=0;entryDy=0;" edge="1" parent="1" source="GTWo0XaGXoC1k16elssN-61" target="GTWo0XaGXoC1k16elssN-64">
          <mxGeometry relative="1" as="geometry" />
        </mxCell>
        <mxCell id="GTWo0XaGXoC1k16elssN-66" value="Nee" style="edgeLabel;html=1;align=center;verticalAlign=middle;resizable=0;points=[];" vertex="1" connectable="0" parent="GTWo0XaGXoC1k16elssN-65">
          <mxGeometry x="-0.0641" relative="1" as="geometry">
            <mxPoint as="offset" />
          </mxGeometry>
        </mxCell>
        <mxCell id="GTWo0XaGXoC1k16elssN-61" value="rook" style="rounded=0;whiteSpace=wrap;html=1;" vertex="1" parent="1">
          <mxGeometry x="1150" y="865.5" width="90" height="30" as="geometry" />
        </mxCell>
        <mxCell id="GTWo0XaGXoC1k16elssN-62" style="edgeStyle=orthogonalEdgeStyle;rounded=0;orthogonalLoop=1;jettySize=auto;html=1;exitX=0.5;exitY=1;exitDx=0;exitDy=0;entryX=0.5;entryY=1;entryDx=0;entryDy=0;" edge="1" parent="1" source="GTWo0XaGXoC1k16elssN-63" target="GTWo0XaGXoC1k16elssN-64">
          <mxGeometry relative="1" as="geometry" />
        </mxCell>
        <mxCell id="GTWo0XaGXoC1k16elssN-63" value="GPS" style="rounded=0;whiteSpace=wrap;html=1;" vertex="1" parent="1">
          <mxGeometry x="1150" y="945.5" width="90" height="30" as="geometry" />
        </mxCell>
        <mxCell id="GTWo0XaGXoC1k16elssN-64" value="DATA" style="rounded=1;whiteSpace=wrap;html=1;" vertex="1" parent="1">
          <mxGeometry x="980" y="863" width="80" height="35" as="geometry" />
        </mxCell>
        <mxCell id="GTWo0XaGXoC1k16elssN-67" style="edgeStyle=orthogonalEdgeStyle;rounded=0;orthogonalLoop=1;jettySize=auto;html=1;exitX=0;exitY=0.5;exitDx=0;exitDy=0;entryX=0.5;entryY=1;entryDx=0;entryDy=0;entryPerimeter=0;dashed=1;" edge="1" parent="1" source="GTWo0XaGXoC1k16elssN-64" target="GTWo0XaGXoC1k16elssN-3">
          <mxGeometry relative="1" as="geometry" />
        </mxCell>
        <mxCell id="GTWo0XaGXoC1k16elssN-70" value="LoRaWAN&lt;div&gt;&lt;br&gt;&lt;/div&gt;" style="edgeLabel;html=1;align=center;verticalAlign=middle;resizable=0;points=[];" vertex="1" connectable="0" parent="GTWo0XaGXoC1k16elssN-67">
          <mxGeometry x="0.2425" y="-1" relative="1" as="geometry">
            <mxPoint y="-1" as="offset" />
          </mxGeometry>
        </mxCell>
        <mxCell id="GTWo0XaGXoC1k16elssN-68" value="LoRaWAN" style="edgeStyle=orthogonalEdgeStyle;rounded=0;orthogonalLoop=1;jettySize=auto;html=1;exitX=1;exitY=0.5;exitDx=0;exitDy=0;entryX=0.5;entryY=1;entryDx=0;entryDy=0;entryPerimeter=0;dashed=1;" edge="1" parent="1" source="GTWo0XaGXoC1k16elssN-50" target="GTWo0XaGXoC1k16elssN-2">
          <mxGeometry relative="1" as="geometry" />
        </mxCell>
      </root>
    </mxGraphModel>
  </diagram>
</mxfile>
